<svg xmlns="http://www.w3.org/2000/svg" width="225" height="225" viewBox="0 0 225 225" version="1.1"><path d="M 99.110 19.396 C 94.393 22.010, 94.073 23.889, 94.035 49.250 C 94.016 62.313, 93.745 73, 93.434 73 C 93.123 73, 92.013 72.542, 90.968 71.983 C 89.425 71.157, 88.759 71.439, 87.419 73.483 C 85.345 76.648, 83.308 76.668, 80.055 73.555 L 77.500 71.110 71.220 74.126 C 64.467 77.369, 50.396 90.572, 49.381 94.618 C 49.082 95.810, 49.537 98.138, 50.393 99.792 C 52.042 102.983, 60.753 110.983, 62.589 110.994 C 64.108 111.003, 66.177 106.227, 64.975 105.485 C 64.453 105.162, 62.683 102.946, 61.042 100.560 L 58.057 96.223 62.713 92.596 C 65.274 90.601, 67.710 89.313, 68.128 89.734 C 68.545 90.155, 69.106 94.428, 69.373 99.230 C 69.674 104.649, 70.425 108.769, 71.354 110.095 C 73.041 112.503, 72.519 115, 70.329 115 C 69.068 115, 68.953 120.267, 69.474 154.250 C 69.805 175.838, 70.316 195.863, 70.610 198.750 C 71.141 203.969, 71.165 204, 74.603 204 C 76.506 204, 78.258 203.437, 78.496 202.750 C 78.735 202.063, 79.383 194.075, 79.937 185 C 81.051 166.754, 83.818 142.948, 84.970 141.694 C 85.378 141.251, 86.019 143.501, 86.395 146.694 C 87.149 153.102, 89.975 195.592, 89.991 200.750 C 89.999 203.781, 90.230 204, 93.421 204 C 97.486 204, 97.589 203.677, 98.556 188 L 99.203 177.500 131.553 177.801 C 159.379 178.060, 164.326 177.883, 166.934 176.534 C 173.295 173.245, 173.066 176.388, 172.769 96.430 L 172.500 23.835 169.234 20.918 L 165.968 18 133.734 18.035 C 108.901 18.063, 100.951 18.375, 99.110 19.396 M 99.077 23.589 L 96 26.178 96 50.089 C 96 69.627, 96.250 74, 97.365 74 C 100.733 74, 103.909 78.219, 106.592 86.261 L 109.342 94.500 110.669 91.262 C 111.399 89.481, 112.696 83.856, 113.550 78.762 C 114.405 73.668, 115.559 68.060, 116.113 66.300 C 117.261 62.660, 122.848 57.327, 126.466 56.419 C 127.802 56.084, 129.604 54.727, 130.470 53.405 C 132.461 50.366, 133.524 50.384, 136.412 53.500 C 138.740 56.012, 142 56.878, 142 54.985 C 142 53.473, 148.153 50.008, 150.846 50.004 C 154.081 49.999, 158.611 52.850, 159.915 55.712 C 162.418 61.206, 160.460 67.079, 155.311 69.523 C 151.977 71.105, 151.913 71.250, 152.529 75.821 C 153.694 84.456, 156.028 92.446, 159.591 99.989 L 163.128 107.478 160.953 109.239 C 159.241 110.625, 156.887 111, 149.889 111 C 141.601 111, 141 111.138, 141 113.045 C 141 115.842, 136.624 120, 133.680 120 C 130.523 120, 126.389 116.685, 125.593 113.516 C 124.978 111.064, 124.737 111, 116.052 111 C 107.047 111, 104 109.885, 104 106.589 C 104 105.355, 99.132 102.535, 98.350 103.316 C 98.135 103.532, 98.432 113.336, 99.010 125.104 C 99.588 136.872, 100.159 152.575, 100.280 160 L 100.500 173.500 133.123 173.764 C 164.047 174.013, 165.869 173.927, 168.123 172.102 L 170.500 170.177 170.770 98.531 L 171.039 26.885 168.096 23.943 C 165.162 21.008, 165.121 21, 152.971 21 C 141.440 21, 140.630 21.133, 137.822 23.496 C 134.711 26.114, 132.808 25.883, 130.045 22.555 C 128.997 21.291, 126.265 21, 115.454 21 C 102.604 21, 102.049 21.088, 99.077 23.589 M 153.750 25.689 C 151.354 26.315, 151.537 28, 154 28 C 155.111 28, 156 27.333, 156 26.500 C 156 25.675, 155.887 25.052, 155.750 25.116 C 155.613 25.180, 154.713 25.438, 153.750 25.689 M 159.667 25.667 C 158.399 26.934, 159.008 28, 161 28 C 162.111 28, 163 27.333, 163 26.500 C 163 24.978, 160.885 24.449, 159.667 25.667 M 76.807 52.750 C 74.325 55.640, 74.031 57.688, 75.451 62.202 C 76.406 65.241, 76.831 65.810, 76.901 64.143 C 76.980 62.263, 77.354 61.953, 78.750 62.611 C 79.713 63.065, 82.412 63.394, 84.750 63.344 C 87.251 63.290, 89.026 63.714, 89.063 64.376 C 89.098 64.994, 89.576 64.375, 90.126 63 C 91.517 59.518, 90.339 54.351, 87.738 52.529 C 84.752 50.438, 78.688 50.560, 76.807 52.750 M 149.500 56 C 149.160 56.550, 149.334 57, 149.886 57 C 150.439 57, 151.059 59.138, 151.265 61.750 C 151.635 66.448, 151.641 66.436, 151.820 60.750 C 151.985 55.468, 151.033 53.519, 149.500 56 M 98 92.500 C 98 94.130, 98.560 95, 99.607 95 C 100.662 95, 101.005 94.456, 100.607 93.418 C 100.273 92.548, 100 91.423, 100 90.918 C 100 90.413, 99.550 90, 99 90 C 98.450 90, 98 91.125, 98 92.500 M 85.292 93.761 C 85.727 93.999, 85.560 94.826, 84.919 95.597 C 84.032 96.666, 84.036 97, 84.937 97 C 85.586 97, 85.848 97.437, 85.518 97.971 C 84.788 99.153, 89.407 100.442, 91.498 99.639 C 93.015 99.057, 93.638 95.109, 92.250 94.872 C 91.838 94.802, 90.600 94.626, 89.500 94.482 C 88.400 94.337, 86.825 94.018, 86 93.773 C 85.175 93.528, 84.856 93.523, 85.292 93.761 M 119.250 130.748 C 126.813 130.917, 139.188 130.917, 146.750 130.748 C 154.313 130.578, 148.125 130.439, 133 130.439 C 117.875 130.439, 111.688 130.578, 119.250 130.748 M 119.811 139.748 C 127.681 139.917, 140.281 139.917, 147.811 139.747 C 155.340 139.578, 148.900 139.439, 133.500 139.440 C 118.100 139.440, 111.940 139.579, 119.811 139.748 M 119.811 144.748 C 127.681 144.917, 140.281 144.917, 147.811 144.747 C 155.340 144.578, 148.900 144.439, 133.500 144.440 C 118.100 144.440, 111.940 144.579, 119.811 144.748 M 129 162 C 129 162.550, 129.450 163, 130 163 C 130.550 163, 131 162.550, 131 162 C 131 161.450, 130.550 161, 130 161 C 129.450 161, 129 161.450, 129 162 M 136 162 C 136 162.550, 136.477 163, 137.059 163 C 137.641 163, 137.840 162.550, 137.500 162 C 137.160 161.450, 136.684 161, 136.441 161 C 136.198 161, 136 161.450, 136 162 M 71.161 207.547 C 69.487 211.220, 69.718 212.779, 72.126 214.068 C 73.708 214.914, 74.887 214.917, 76.729 214.078 C 78.789 213.139, 79.090 212.493, 78.522 210.231 C 77.102 204.573, 73.169 203.139, 71.161 207.547 M 90 206.932 C 90 209.662, 94.714 212.685, 100.270 213.518 C 103.952 214.070, 104.992 213.925, 104.962 212.864 C 104.904 210.775, 97.486 206.060, 95.199 206.658 C 94.114 206.942, 92.923 206.685, 92.554 206.087 C 91.476 204.344, 90 204.832, 90 206.932" stroke="none" fill="#235f7b" fill-rule="evenodd"/><path d="M -0 112.504 L -0 225.009 112.750 224.754 L 225.500 224.500 225.754 112.250 L 226.009 0 113.004 0 L 0 0 -0 112.504 M 0.483 113 C 0.483 174.875, 0.603 200.188, 0.750 169.250 C 0.897 138.313, 0.897 87.688, 0.750 56.750 C 0.603 25.813, 0.483 51.125, 0.483 113 M 99.110 19.396 C 94.393 22.010, 94.073 23.889, 94.035 49.250 C 94.016 62.313, 93.745 73, 93.434 73 C 93.123 73, 92.013 72.542, 90.968 71.983 C 89.425 71.157, 88.759 71.439, 87.419 73.483 C 85.345 76.648, 83.308 76.668, 80.055 73.555 L 77.500 71.110 71.220 74.126 C 64.467 77.369, 50.396 90.572, 49.381 94.618 C 49.082 95.810, 49.537 98.138, 50.393 99.792 C 52.042 102.983, 60.753 110.983, 62.589 110.994 C 64.108 111.003, 66.177 106.227, 64.975 105.485 C 64.453 105.162, 62.683 102.946, 61.042 100.560 L 58.057 96.223 62.713 92.596 C 65.274 90.601, 67.710 89.313, 68.128 89.734 C 68.545 90.155, 69.106 94.428, 69.373 99.230 C 69.674 104.649, 70.425 108.769, 71.354 110.095 C 73.041 112.503, 72.519 115, 70.329 115 C 69.068 115, 68.953 120.267, 69.474 154.250 C 69.805 175.838, 70.316 195.863, 70.610 198.750 C 71.141 203.969, 71.165 204, 74.603 204 C 76.506 204, 78.258 203.437, 78.496 202.750 C 78.735 202.063, 79.383 194.075, 79.937 185 C 81.051 166.754, 83.818 142.948, 84.970 141.694 C 85.378 141.251, 86.019 143.501, 86.395 146.694 C 87.149 153.102, 89.975 195.592, 89.991 200.750 C 89.999 203.781, 90.230 204, 93.421 204 C 97.486 204, 97.589 203.677, 98.556 188 L 99.203 177.500 131.553 177.801 C 159.379 178.060, 164.326 177.883, 166.934 176.534 C 173.295 173.245, 173.066 176.388, 172.769 96.430 L 172.500 23.835 169.234 20.918 L 165.968 18 133.734 18.035 C 108.901 18.063, 100.951 18.375, 99.110 19.396 M 99.077 23.589 L 96 26.178 96 50.089 C 96 69.627, 96.250 74, 97.365 74 C 100.733 74, 103.909 78.219, 106.592 86.261 L 109.342 94.500 110.669 91.262 C 111.399 89.481, 112.696 83.856, 113.550 78.762 C 114.405 73.668, 115.559 68.060, 116.113 66.300 C 117.261 62.660, 122.848 57.327, 126.466 56.419 C 127.802 56.084, 129.604 54.727, 130.470 53.405 C 132.461 50.366, 133.524 50.384, 136.412 53.500 C 138.740 56.012, 142 56.878, 142 54.985 C 142 53.473, 148.153 50.008, 150.846 50.004 C 154.081 49.999, 158.611 52.850, 159.915 55.712 C 162.418 61.206, 160.460 67.079, 155.311 69.523 C 151.977 71.105, 151.913 71.250, 152.529 75.821 C 153.694 84.456, 156.028 92.446, 159.591 99.989 L 163.128 107.478 160.953 109.239 C 159.241 110.625, 156.887 111, 149.889 111 C 141.601 111, 141 111.138, 141 113.045 C 141 115.842, 136.624 120, 133.680 120 C 130.523 120, 126.389 116.685, 125.593 113.516 C 124.978 111.064, 124.737 111, 116.052 111 C 107.047 111, 104 109.885, 104 106.589 C 104 105.355, 99.132 102.535, 98.350 103.316 C 98.135 103.532, 98.432 113.336, 99.010 125.104 C 99.588 136.872, 100.159 152.575, 100.280 160 L 100.500 173.500 133.123 173.764 C 164.047 174.013, 165.869 173.927, 168.123 172.102 L 170.500 170.177 170.770 98.531 L 171.039 26.885 168.096 23.943 C 165.162 21.008, 165.121 21, 152.971 21 C 141.440 21, 140.630 21.133, 137.822 23.496 C 134.711 26.114, 132.808 25.883, 130.045 22.555 C 128.997 21.291, 126.265 21, 115.454 21 C 102.604 21, 102.049 21.088, 99.077 23.589 M 153.750 25.689 C 151.354 26.315, 151.537 28, 154 28 C 155.111 28, 156 27.333, 156 26.500 C 156 25.675, 155.887 25.052, 155.750 25.116 C 155.613 25.180, 154.713 25.438, 153.750 25.689 M 159.667 25.667 C 158.399 26.934, 159.008 28, 161 28 C 162.111 28, 163 27.333, 163 26.500 C 163 24.978, 160.885 24.449, 159.667 25.667 M 76.807 52.750 C 74.325 55.640, 74.031 57.688, 75.451 62.202 C 76.406 65.241, 76.831 65.810, 76.901 64.143 C 76.980 62.263, 77.354 61.953, 78.750 62.611 C 79.713 63.065, 82.412 63.394, 84.750 63.344 C 87.251 63.290, 89.026 63.714, 89.063 64.376 C 89.098 64.994, 89.576 64.375, 90.126 63 C 91.517 59.518, 90.339 54.351, 87.738 52.529 C 84.752 50.438, 78.688 50.560, 76.807 52.750 M 149.500 56 C 149.160 56.550, 149.334 57, 149.886 57 C 150.439 57, 151.059 59.138, 151.265 61.750 C 151.635 66.448, 151.641 66.436, 151.820 60.750 C 151.985 55.468, 151.033 53.519, 149.500 56 M 98 92.500 C 98 94.130, 98.560 95, 99.607 95 C 100.662 95, 101.005 94.456, 100.607 93.418 C 100.273 92.548, 100 91.423, 100 90.918 C 100 90.413, 99.550 90, 99 90 C 98.450 90, 98 91.125, 98 92.500 M 85.292 93.761 C 85.727 93.999, 85.560 94.826, 84.919 95.597 C 84.032 96.666, 84.036 97, 84.937 97 C 85.586 97, 85.848 97.437, 85.518 97.971 C 84.788 99.153, 89.407 100.442, 91.498 99.639 C 93.015 99.057, 93.638 95.109, 92.250 94.872 C 91.838 94.802, 90.600 94.626, 89.500 94.482 C 88.400 94.337, 86.825 94.018, 86 93.773 C 85.175 93.528, 84.856 93.523, 85.292 93.761 M 119.250 130.748 C 126.813 130.917, 139.188 130.917, 146.750 130.748 C 154.313 130.578, 148.125 130.439, 133 130.439 C 117.875 130.439, 111.688 130.578, 119.250 130.748 M 119.811 139.748 C 127.681 139.917, 140.281 139.917, 147.811 139.747 C 155.340 139.578, 148.900 139.439, 133.500 139.440 C 118.100 139.440, 111.940 139.579, 119.811 139.748 M 119.811 144.748 C 127.681 144.917, 140.281 144.917, 147.811 144.747 C 155.340 144.578, 148.900 144.439, 133.500 144.440 C 118.100 144.440, 111.940 144.579, 119.811 144.748 M 129 162 C 129 162.550, 129.450 163, 130 163 C 130.550 163, 131 162.550, 131 162 C 131 161.450, 130.550 161, 130 161 C 129.450 161, 129 161.450, 129 162 M 136 162 C 136 162.550, 136.477 163, 137.059 163 C 137.641 163, 137.840 162.550, 137.500 162 C 137.160 161.450, 136.684 161, 136.441 161 C 136.198 161, 136 161.450, 136 162 M 71.161 207.547 C 69.487 211.220, 69.718 212.779, 72.126 214.068 C 73.708 214.914, 74.887 214.917, 76.729 214.078 C 78.789 213.139, 79.090 212.493, 78.522 210.231 C 77.102 204.573, 73.169 203.139, 71.161 207.547 M 90 206.932 C 90 209.662, 94.714 212.685, 100.270 213.518 C 103.952 214.070, 104.992 213.925, 104.962 212.864 C 104.904 210.775, 97.486 206.060, 95.199 206.658 C 94.114 206.942, 92.923 206.685, 92.554 206.087 C 91.476 204.344, 90 204.832, 90 206.932" stroke="none" fill="#faf8f7" fill-rule="evenodd"/></svg>