<svg xmlns="http://www.w3.org/2000/svg" width="225" height="225" viewBox="0 0 225 225" version="1.1"><path d="M 71.591 16.795 C 62.051 17.151, 58.588 19.102, 56.994 25.022 C 56.285 27.654, 56.031 53.278, 56.219 102.953 L 56.500 176.962 59.768 180.231 L 63.037 183.500 100.768 183.500 L 138.500 183.500 138.794 176.250 L 139.088 169 105.994 169 C 69.431 169, 68.735 168.893, 64.960 162.701 C 63.078 159.615, 63.007 157.218, 63.004 96.200 C 63 27.638, 62.874 29.278, 68.414 25.648 C 70.384 24.357, 73.435 24, 82.490 24 C 93.943 24, 94.058 24.023, 95.013 26.535 C 95.969 29.049, 96.063 29.068, 106.239 28.785 C 115.786 28.520, 116.569 28.343, 117.487 26.250 C 118.431 24.099, 118.994 24, 130.337 24 L 142.200 24 145.600 27.400 L 149 30.800 149.059 43.150 C 149.091 49.942, 149.250 57.232, 149.411 59.349 C 149.624 62.143, 149.103 63.925, 147.511 65.849 C 146.304 67.307, 145.055 69.543, 144.735 70.818 C 144.060 73.501, 145.612 78.823, 147.704 81 C 148.967 82.314, 149.062 82.042, 148.474 78.818 C 147.875 75.530, 148.007 75.189, 149.711 75.635 C 151.059 75.987, 151.960 75.383, 152.785 73.573 C 153.787 71.373, 154.539 71.036, 158.129 71.176 C 161.392 71.304, 162.710 70.841, 164.153 69.059 C 165.169 67.805, 166 65.998, 166 65.044 C 166 63.043, 162.664 59.669, 161.669 60.664 C 161.301 61.032, 161 52.888, 161 42.567 L 161 23.800 157.600 20.400 C 155.710 18.510, 153.156 16.985, 151.850 16.966 C 132.808 16.690, 77.566 16.572, 71.591 16.795 M 141.286 32.500 C 141.294 35.250, 141.488 36.256, 141.718 34.736 C 141.947 33.216, 141.941 30.966, 141.704 29.736 C 141.467 28.506, 141.279 29.750, 141.286 32.500 M 138.252 33.500 C 138.263 35.700, 138.468 36.482, 138.707 35.238 C 138.946 33.994, 138.937 32.194, 138.687 31.238 C 138.437 30.282, 138.241 31.300, 138.252 33.500 M 135.195 34.500 C 135.215 36.150, 135.439 36.704, 135.693 35.731 C 135.947 34.758, 135.930 33.408, 135.656 32.731 C 135.382 32.054, 135.175 32.850, 135.195 34.500 M 132.079 35.583 C 132.127 36.748, 132.364 36.985, 132.683 36.188 C 132.972 35.466, 132.936 34.603, 132.604 34.271 C 132.272 33.939, 132.036 34.529, 132.079 35.583 M 75 62.696 L 75 72.392 78.298 69.196 C 80.111 67.438, 81.959 66, 82.404 66 C 82.848 66, 84.097 67.125, 85.179 68.500 C 86.260 69.875, 87.629 71, 88.220 71 C 88.811 71, 91.659 68.412, 94.549 65.250 L 99.803 59.500 102.901 62.437 L 106 65.374 106 59.187 L 106 53 90.500 53 L 75 53 75 62.696 M 159.160 80 C 158.430 81.650, 157.195 83, 156.416 83 C 154.451 83, 154.589 83.450, 158 88.159 L 161 92.300 161 84.650 C 161 80.443, 160.885 77, 160.744 77 C 160.603 77, 159.891 78.350, 159.160 80 M 171 95.578 C 169.075 96.363, 166.713 97.281, 165.750 97.619 C 164.451 98.075, 164 99.338, 164 102.526 L 164 106.819 167.952 104.909 C 173.030 102.456, 179.551 102.477, 184.425 104.962 C 187.358 106.457, 188.776 106.682, 190.387 105.907 C 191.761 105.245, 191.536 105.639, 189.745 107.032 C 188.230 108.210, 187.258 109.608, 187.585 110.137 C 187.912 110.667, 186.459 110.178, 184.355 109.050 C 179.662 106.535, 173.279 106.414, 168.509 108.750 L 164.936 110.500 165.523 116.500 C 166.507 126.540, 167.909 127.958, 176.882 127.986 C 191.278 128.031, 198.821 109.808, 188.665 99.520 C 183.458 94.244, 177.523 92.920, 171 95.578 M 166 103.059 C 166 103.641, 166.450 103.840, 167 103.500 C 167.550 103.160, 168 102.684, 168 102.441 C 168 102.198, 167.550 102, 167 102 C 166.450 102, 166 102.477, 166 103.059 M 173 109.250 C 173 109.662, 172.380 110, 171.622 110 C 169.423 110, 167.475 112.875, 168.787 114.187 C 169.589 114.989, 170.699 114.953, 172.871 114.054 C 176.093 112.719, 179.124 113.267, 181.465 115.607 C 182.766 116.909, 183.015 116.790, 183.565 114.599 C 184.338 111.519, 183.471 110, 180.941 110 C 179.873 110, 179 109.662, 179 109.250 C 179 108.838, 177.650 108.500, 176 108.500 C 174.350 108.500, 173 108.838, 173 109.250 M 190.361 108.765 C 189.529 109.301, 189.580 109.833, 190.547 110.730 C 191.617 111.723, 191.844 111.578, 191.724 109.980 C 191.642 108.891, 191.558 108.007, 191.537 108.015 C 191.517 108.024, 190.987 108.361, 190.361 108.765 M 172.765 116.194 C 171.580 119.716, 174.205 122.094, 178.308 121.217 C 179.608 120.939, 180.030 120.082, 179.808 118.165 C 179.556 115.988, 178.923 115.444, 176.352 115.194 C 174.422 115.007, 173.034 115.394, 172.765 116.194 M 187 120.940 C 187 121.740, 186.349 121.966, 185.250 121.548 C 183.847 121.014, 183.748 121.131, 184.750 122.141 C 185.712 123.110, 186.272 123.128, 187.183 122.217 C 187.834 121.566, 188.059 120.726, 187.683 120.350 C 187.308 119.974, 187 120.240, 187 120.940 M 145.250 138.745 C 141.987 140.369, 141.263 142.287, 142.923 144.910 C 143.668 146.086, 144.326 146.108, 146.908 145.038 C 149.501 143.964, 150 143.212, 150 140.379 C 150 136.571, 149.774 136.494, 145.250 138.745 M 153.514 151.750 C 153.120 154.912, 151.722 162.675, 150.407 169 C 149.092 175.325, 148.012 181.287, 148.008 182.250 C 147.999 184.295, 149.853 184.480, 153.539 182.800 C 156.169 181.602, 156.172 181.588, 155.403 173.550 C 154.979 169.123, 154.712 161.113, 154.809 155.750 C 154.906 150.387, 154.816 146, 154.608 146 C 154.400 146, 153.908 148.588, 153.514 151.750 M 137.450 200.883 C 137.203 201.131, 137 202.383, 137 203.667 C 137 205.928, 137.262 206, 145.500 206 C 150.175 206, 154 205.582, 154 205.071 C 154 203.055, 150.671 200.992, 147.179 200.844 C 145.155 200.758, 142.240 200.630, 140.700 200.560 C 139.160 200.490, 137.698 200.636, 137.450 200.883 M 156 201.487 C 156 202.229, 155.727 203.548, 155.393 204.418 C 154.868 205.785, 155.955 206, 163.393 206 C 170.285 206, 172 205.708, 172 204.535 C 172 202.334, 168.907 201.101, 162.113 200.594 C 157.425 200.245, 156 200.453, 156 201.487" stroke="none" fill="#3b95e6" fill-rule="evenodd"/><path d="M -0 112.504 L -0 225.009 112.750 224.754 L 225.500 224.500 225.754 112.250 L 226.009 0 113.004 0 L 0 0 -0 112.504 M 0.483 113 C 0.483 174.875, 0.603 200.188, 0.750 169.250 C 0.897 138.313, 0.897 87.688, 0.750 56.750 C 0.603 25.813, 0.483 51.125, 0.483 113 M 71.591 16.795 C 62.051 17.151, 58.588 19.102, 56.994 25.022 C 56.285 27.654, 56.031 53.278, 56.219 102.953 L 56.500 176.962 59.768 180.231 L 63.037 183.500 100.768 183.500 L 138.500 183.500 138.794 176.250 L 139.088 169 105.994 169 C 69.431 169, 68.735 168.893, 64.960 162.701 C 63.078 159.615, 63.007 157.218, 63.004 96.200 C 63 27.638, 62.874 29.278, 68.414 25.648 C 70.384 24.357, 73.435 24, 82.490 24 C 93.943 24, 94.058 24.023, 95.013 26.535 C 95.969 29.049, 96.063 29.068, 106.239 28.785 C 115.786 28.520, 116.569 28.343, 117.487 26.250 C 118.431 24.099, 118.994 24, 130.337 24 L 142.200 24 145.600 27.400 L 149 30.800 149.059 43.150 C 149.091 49.942, 149.250 57.232, 149.411 59.349 C 149.624 62.143, 149.103 63.925, 147.511 65.849 C 146.304 67.307, 145.055 69.543, 144.735 70.818 C 144.060 73.501, 145.612 78.823, 147.704 81 C 148.967 82.314, 149.062 82.042, 148.474 78.818 C 147.875 75.530, 148.007 75.189, 149.711 75.635 C 151.059 75.987, 151.960 75.383, 152.785 73.573 C 153.787 71.373, 154.539 71.036, 158.129 71.176 C 161.392 71.304, 162.710 70.841, 164.153 69.059 C 165.169 67.805, 166 65.998, 166 65.044 C 166 63.043, 162.664 59.669, 161.669 60.664 C 161.301 61.032, 161 52.888, 161 42.567 L 161 23.800 157.600 20.400 C 155.710 18.510, 153.156 16.985, 151.850 16.966 C 132.808 16.690, 77.566 16.572, 71.591 16.795 M 141.286 32.500 C 141.294 35.250, 141.488 36.256, 141.718 34.736 C 141.947 33.216, 141.941 30.966, 141.704 29.736 C 141.467 28.506, 141.279 29.750, 141.286 32.500 M 138.252 33.500 C 138.263 35.700, 138.468 36.482, 138.707 35.238 C 138.946 33.994, 138.937 32.194, 138.687 31.238 C 138.437 30.282, 138.241 31.300, 138.252 33.500 M 135.195 34.500 C 135.215 36.150, 135.439 36.704, 135.693 35.731 C 135.947 34.758, 135.930 33.408, 135.656 32.731 C 135.382 32.054, 135.175 32.850, 135.195 34.500 M 132.079 35.583 C 132.127 36.748, 132.364 36.985, 132.683 36.188 C 132.972 35.466, 132.936 34.603, 132.604 34.271 C 132.272 33.939, 132.036 34.529, 132.079 35.583 M 75 62.696 L 75 72.392 78.298 69.196 C 80.111 67.438, 81.959 66, 82.404 66 C 82.848 66, 84.097 67.125, 85.179 68.500 C 86.260 69.875, 87.629 71, 88.220 71 C 88.811 71, 91.659 68.412, 94.549 65.250 L 99.803 59.500 102.901 62.437 L 106 65.374 106 59.187 L 106 53 90.500 53 L 75 53 75 62.696 M 159.160 80 C 158.430 81.650, 157.195 83, 156.416 83 C 154.451 83, 154.589 83.450, 158 88.159 L 161 92.300 161 84.650 C 161 80.443, 160.885 77, 160.744 77 C 160.603 77, 159.891 78.350, 159.160 80 M 171 95.578 C 169.075 96.363, 166.713 97.281, 165.750 97.619 C 164.451 98.075, 164 99.338, 164 102.526 L 164 106.819 167.952 104.909 C 173.030 102.456, 179.551 102.477, 184.425 104.962 C 187.358 106.457, 188.776 106.682, 190.387 105.907 C 191.761 105.245, 191.536 105.639, 189.745 107.032 C 188.230 108.210, 187.258 109.608, 187.585 110.137 C 187.912 110.667, 186.459 110.178, 184.355 109.050 C 179.662 106.535, 173.279 106.414, 168.509 108.750 L 164.936 110.500 165.523 116.500 C 166.507 126.540, 167.909 127.958, 176.882 127.986 C 191.278 128.031, 198.821 109.808, 188.665 99.520 C 183.458 94.244, 177.523 92.920, 171 95.578 M 166 103.059 C 166 103.641, 166.450 103.840, 167 103.500 C 167.550 103.160, 168 102.684, 168 102.441 C 168 102.198, 167.550 102, 167 102 C 166.450 102, 166 102.477, 166 103.059 M 173 109.250 C 173 109.662, 172.380 110, 171.622 110 C 169.423 110, 167.475 112.875, 168.787 114.187 C 169.589 114.989, 170.699 114.953, 172.871 114.054 C 176.093 112.719, 179.124 113.267, 181.465 115.607 C 182.766 116.909, 183.015 116.790, 183.565 114.599 C 184.338 111.519, 183.471 110, 180.941 110 C 179.873 110, 179 109.662, 179 109.250 C 179 108.838, 177.650 108.500, 176 108.500 C 174.350 108.500, 173 108.838, 173 109.250 M 190.361 108.765 C 189.529 109.301, 189.580 109.833, 190.547 110.730 C 191.617 111.723, 191.844 111.578, 191.724 109.980 C 191.642 108.891, 191.558 108.007, 191.537 108.015 C 191.517 108.024, 190.987 108.361, 190.361 108.765 M 172.765 116.194 C 171.580 119.716, 174.205 122.094, 178.308 121.217 C 179.608 120.939, 180.030 120.082, 179.808 118.165 C 179.556 115.988, 178.923 115.444, 176.352 115.194 C 174.422 115.007, 173.034 115.394, 172.765 116.194 M 187 120.940 C 187 121.740, 186.349 121.966, 185.250 121.548 C 183.847 121.014, 183.748 121.131, 184.750 122.141 C 185.712 123.110, 186.272 123.128, 187.183 122.217 C 187.834 121.566, 188.059 120.726, 187.683 120.350 C 187.308 119.974, 187 120.240, 187 120.940 M 145.250 138.745 C 141.987 140.369, 141.263 142.287, 142.923 144.910 C 143.668 146.086, 144.326 146.108, 146.908 145.038 C 149.501 143.964, 150 143.212, 150 140.379 C 150 136.571, 149.774 136.494, 145.250 138.745 M 153.514 151.750 C 153.120 154.912, 151.722 162.675, 150.407 169 C 149.092 175.325, 148.012 181.287, 148.008 182.250 C 147.999 184.295, 149.853 184.480, 153.539 182.800 C 156.169 181.602, 156.172 181.588, 155.403 173.550 C 154.979 169.123, 154.712 161.113, 154.809 155.750 C 154.906 150.387, 154.816 146, 154.608 146 C 154.400 146, 153.908 148.588, 153.514 151.750 M 137.450 200.883 C 137.203 201.131, 137 202.383, 137 203.667 C 137 205.928, 137.262 206, 145.500 206 C 150.175 206, 154 205.582, 154 205.071 C 154 203.055, 150.671 200.992, 147.179 200.844 C 145.155 200.758, 142.240 200.630, 140.700 200.560 C 139.160 200.490, 137.698 200.636, 137.450 200.883 M 156 201.487 C 156 202.229, 155.727 203.548, 155.393 204.418 C 154.868 205.785, 155.955 206, 163.393 206 C 170.285 206, 172 205.708, 172 204.535 C 172 202.334, 168.907 201.101, 162.113 200.594 C 157.425 200.245, 156 200.453, 156 201.487" stroke="none" fill="#e9f0f2" fill-rule="evenodd"/></svg>